# xmcd
#
# Track frame offsets:
#	150
#	15349
#	33890
#	50334
#	64767
#	83193
#	102754
#	119572
#	137181
#	156190
#	173554
#	190631
#	204825
#	219302
#
# Disc length: 3218 seconds
#
# Revision: 1
# Processed by: cddbd v1.5.2PL0 Copyright (c) Steve Scherf et al.
# Submitted via: EZCDAudioConverter 2.4.0.1
#
DISCID=ae0c900e
DTITLE=Chitãozinho and Xororó - Alô
DYEAR=1999
DGENRE=Sertanejo
TTITLE0=Alô
TTITLE1=Coração Vazio (We're All Alone)
TTITLE2=Lobo Solitário
TTITLE3=Nada é Igual ao Amor
TTITLE4=Cheia de Charme
TTITLE5=Falando às Paredes
TTITLE6=Eu Quero Bis
TTITLE7=Pra Mim Tanto Faz
TTITLE8=Não Desligue o Rádio
TTITLE9=Desejo
TTITLE10=O Amor é Mais Forte
TTITLE11=Dinheiro, Pra Que Dinheiro
TTITLE12=500 Anos
TTITLE13=Direito de Viver
EXTD=
EXTT0=
EXTT1=
EXTT2=
EXTT3=
EXTT4=
EXTT5=
EXTT6=
EXTT7=
EXTT8=
EXTT9=
EXTT10=
EXTT11=
EXTT12=
EXTT13=
PLAYORDER=
